<svg width="18" height="17" viewBox="0 0 18 17" fill="none" xmlns="http://www.w3.org/2000/svg">
<mask id="path-1-inside-1_86_2313" fill="white">
<path fill-rule="evenodd" clip-rule="evenodd" d="M1.52247 8.87389C-0.507509 6.84385 -0.507491 3.55255 1.52253 1.52253C3.55252 -0.507459 6.84374 -0.507509 8.87379 1.52238C10.9038 -0.507509 14.1951 -0.507459 16.2251 1.52253C18.2551 3.55255 18.2551 6.84385 16.2251 8.87389L16.2252 8.87399L8.87379 16.2254L1.52238 8.87399L1.52247 8.87389Z"/>
</mask>
<path fill-rule="evenodd" clip-rule="evenodd" d="M1.52247 8.87389C-0.507509 6.84385 -0.507491 3.55255 1.52253 1.52253C3.55252 -0.507459 6.84374 -0.507509 8.87379 1.52238C10.9038 -0.507509 14.1951 -0.507459 16.2251 1.52253C18.2551 3.55255 18.2551 6.84385 16.2251 8.87389L16.2252 8.87399L8.87379 16.2254L1.52238 8.87399L1.52247 8.87389Z" fill="#FF9A9A"/>
<path d="M1.52247 8.87389L2.22915 9.58143L2.93711 8.87433L2.22959 8.16679L1.52247 8.87389ZM1.52253 1.52253L2.22964 2.22964L1.52253 1.52253ZM8.87379 1.52238L8.16672 2.22951L8.87379 2.93653L9.58087 2.22951L8.87379 1.52238ZM16.2251 1.52253L16.9322 0.815422L16.2251 1.52253ZM16.2251 8.87389L15.518 8.16679L14.8109 8.8739L15.518 9.581L16.2251 8.87389ZM16.2252 8.87399L16.9323 9.5811L17.6394 8.87399L16.9323 8.16688L16.2252 8.87399ZM8.87379 16.2254L8.16669 16.9325L8.87379 17.6396L9.5809 16.9325L8.87379 16.2254ZM1.52238 8.87399L0.815698 8.16645L0.107733 8.87356L0.815269 9.5811L1.52238 8.87399ZM2.22959 8.16679C0.590122 6.52728 0.590136 3.86913 2.22964 2.22964L0.815422 0.815422C-1.60512 3.23596 -1.60514 7.16042 0.815357 9.58099L2.22959 8.16679ZM2.22964 2.22964C3.86911 0.590163 6.52719 0.590122 8.16672 2.22951L9.58087 0.81524C7.16029 -1.60514 3.23592 -1.60508 0.815422 0.815422L2.22964 2.22964ZM9.58087 2.22951C11.2204 0.590122 13.8785 0.590163 15.518 2.22964L16.9322 0.815422C14.5117 -1.60508 10.5873 -1.60514 8.16672 0.81524L9.58087 2.22951ZM15.518 2.22964C17.1574 3.86913 17.1575 6.52728 15.518 8.16679L16.9322 9.58099C19.3527 7.16042 19.3527 3.23596 16.9322 0.815422L15.518 2.22964ZM15.518 9.581L15.5181 9.5811L16.9323 8.16688L16.9322 8.16678L15.518 9.581ZM15.5181 8.16688L8.16669 15.5183L9.5809 16.9325L16.9323 9.5811L15.5181 8.16688ZM9.5809 15.5183L2.22948 8.16688L0.815269 9.5811L8.16669 16.9325L9.5809 15.5183ZM2.22905 9.58153L2.22915 9.58143L0.815796 8.16636L0.815698 8.16645L2.22905 9.58153Z" fill="#A36262" mask="url(#path-1-inside-1_86_2313)"/>
</svg>
