<svg width="27" height="27" viewBox="0 0 27 27" fill="none" xmlns="http://www.w3.org/2000/svg">
<path fill-rule="evenodd" clip-rule="evenodd" d="M3 3H16.7826V6.3587H19.7826V3C19.7826 1.34315 18.4395 0 16.7826 0H3C1.34315 0 0 1.34315 0 3V23.1413C0 24.7982 1.34315 26.1413 3 26.1413H16.7826C18.4395 26.1413 19.7826 24.7982 19.7826 23.1413V19.9239H16.7826V23.1413H3V3Z" fill="black"/>
<path d="M26.5258 13.6763C26.8211 13.3859 26.8251 12.911 26.5346 12.6157L21.8016 7.80315C21.5112 7.50782 21.0363 7.50387 20.741 7.79431C20.4456 8.08476 20.4417 8.55961 20.7321 8.85494L24.9393 13.1328L20.6615 17.3399C20.3661 17.6304 20.3622 18.1052 20.6526 18.4005C20.9431 18.6959 21.4179 18.6998 21.7132 18.4094L26.5258 13.6763ZM8.99375 13.75L25.9937 13.8916L26.0062 12.3916L9.00625 12.25L8.99375 13.75Z" fill="black"/>
</svg>
