<svg width="15" height="17" viewBox="0 0 15 17" fill="none" xmlns="http://www.w3.org/2000/svg">
<path fill-rule="evenodd" clip-rule="evenodd" d="M5.41419 1.91865C5.5028 0.844293 6.40283 0 7.50005 0C8.59728 0 9.49731 0.844293 9.58592 1.91865H14.1279C14.6096 1.91865 15 2.3091 15 2.79075C15 3.27239 14.6096 3.66284 14.1279 3.66284H0.872093C0.39045 3.66284 0 3.27239 0 2.79075C0 2.3091 0.390449 1.91865 0.872093 1.91865H5.41419ZM6.11546 1.91865H8.88461C8.79885 1.23026 8.21165 0.697559 7.50004 0.697559C6.78842 0.697559 6.20122 1.23026 6.11546 1.91865Z" fill="#CD0000"/>
<path fill-rule="evenodd" clip-rule="evenodd" d="M2.39551 4.18604C1.84322 4.18604 1.39551 4.63375 1.39551 5.18604V15.3953C1.39551 15.9476 1.84322 16.3953 2.39551 16.3953H12.6048C13.1571 16.3953 13.6048 15.9476 13.6048 15.3953V5.18604C13.6048 4.63375 13.1571 4.18604 12.6048 4.18604H2.39551ZM4.53499 5.66886C4.53499 5.33171 4.26168 5.0584 3.92453 5.0584C3.58738 5.0584 3.31406 5.33171 3.31406 5.66886V14.913C3.31406 15.2502 3.58738 15.5235 3.92453 15.5235C4.26168 15.5235 4.53499 15.2502 4.53499 14.913V5.66886ZM6.80273 5.66886C6.80273 5.33171 7.07605 5.0584 7.4132 5.0584C7.75035 5.0584 8.02366 5.33171 8.02366 5.66886V14.913C8.02366 15.2502 7.75035 15.5235 7.4132 15.5235C7.07605 15.5235 6.80273 15.2502 6.80273 14.913V5.66886ZM11.5118 5.66886C11.5118 5.33171 11.2384 5.0584 10.9013 5.0584C10.5641 5.0584 10.2908 5.33171 10.2908 5.66886V14.913C10.2908 15.2502 10.5641 15.5235 10.9013 15.5235C11.2384 15.5235 11.5118 15.2502 11.5118 14.913V5.66886Z" fill="#CD0000"/>
</svg>
